<?xml version="1.0" encoding="UTF-8" standalone="no"?>
<!-- Created with Inkscape (http://www.inkscape.org/) -->

<svg
   version="1.1"
   id="svg7104"
   width="466.97757"
   height="456.1955"
   viewBox="0 0 466.97757 456.1955"
   sodipodi:docname="github_logo.png"
   xmlns:inkscape="http://www.inkscape.org/namespaces/inkscape"
   xmlns:sodipodi="http://sodipodi.sourceforge.net/DTD/sodipodi-0.dtd"
   xmlns="http://www.w3.org/2000/svg"
   xmlns:svg="http://www.w3.org/2000/svg">
  <defs
     id="defs7108" />
  <sodipodi:namedview
     id="namedview7106"
     pagecolor="#ffffff"
     bordercolor="#000000"
     borderopacity="0.25"
     inkscape:showpageshadow="2"
     inkscape:pageopacity="0.0"
     inkscape:pagecheckerboard="0"
     inkscape:deskcolor="#d1d1d1"
     showgrid="false" />
  <g
     inkscape:groupmode="layer"
     inkscape:label="Image"
     id="g7110"
     class="svg"
     transform="translate(-1.3593744,-7.637251)">
    <path
       style="fill:#b50000;fill-opacity:1;stroke-width:0.914286"
       d="m 161.72857,463.61625 c -4.44209,-0.86654 -23.45321,-8.77771 -34.15822,-14.21438 C 71.416146,420.88323 27.058056,366.77535 9.7038258,305.62857 c -6.01573,-21.19611 -8.32257,-39.016 -8.34419,-64.45714 -0.0177,-20.88009 0.86424,-30.18765 4.5782,-48.31354 C 23.230396,108.46199 88.728196,38.706474 172.14738,15.843816 219.8198,2.7782554 274.35221,5.4257094 319.26264,22.986008 c 54.69313,21.385406 98.69754,61.498028 125.02087,113.963902 12.0281,23.97362 19.30658,48.00882 22.97798,75.87866 1.4415,10.9425 1.43173,45.2085 -0.0162,56.68572 -4.5737,36.25471 -16.55892,69.29719 -35.76207,98.59365 -27.72436,42.2965 -65.32873,73.14259 -111.1261,91.15446 -14.13036,5.55741 -19.18902,5.88405 -23.55454,1.52098 l -2.95974,-2.9581 -0.55397,-41.35549 c -0.59292,-44.26381 -0.82169,-46.58112 -5.6744,-57.47812 -1.20161,-2.69827 -3.86684,-7.02227 -5.92272,-9.60888 l -3.73797,-4.70293 7.48739,-1.04797 c 23.93543,-3.35011 42.58128,-9.9103 58.66952,-20.64177 19.56505,-13.05064 31.62054,-33.30423 37.54443,-63.07583 1.94937,-9.79695 2.79097,-37.29908 1.41113,-46.11347 -2.35249,-15.02773 -9.78732,-31.69077 -19.10625,-42.82122 l -3.67135,-4.385 2.24752,-7.74016 c 3.99029,-13.74207 2.92652,-33.0127 -2.68636,-48.6643 -1.78117,-4.96677 -2.35509,-5.68618 -5.10111,-6.39409 -8.49608,-2.19023 -32.60765,6.64655 -53.51216,19.61193 -5.2075,3.2298 -7.99489,4.42591 -9.6447,4.13871 -1.27623,-0.22217 -6.49176,-1.28309 -11.59005,-2.3576 -29.16273,-6.14628 -61.09803,-6.14628 -90.26076,0 -5.09829,1.07451 -10.33835,2.13903 -11.64457,2.3656 -1.71201,0.29696 -4.18563,-0.74867 -8.86166,-3.74593 -18.6422,-11.94935 -45.03716,-21.61075 -54.73924,-20.03633 -2.94638,0.47814 -3.15748,0.79228 -5.33958,7.94629 -3.53862,11.60133 -4.43497,17.53223 -4.36489,28.88128 0.052,8.42669 0.51979,12.04549 2.35585,18.22629 l 2.29092,7.712 -3.51929,4.17371 c -9.234314,10.95142 -16.897404,28.11147 -19.242014,43.08882 -1.38181,8.82699 -0.53688,36.33492 1.41612,46.10397 4.68398,23.42959 13.769474,42.06792 26.435154,54.23013 9.51996,9.14153 24.87245,18.01386 39.88644,23.05071 6.52543,2.18912 23.97896,5.89013 32.20059,6.82809 l 5.22917,0.59659 -3.56054,4.5044 c -4.6254,5.85157 -7.9677,13.01153 -9.74251,20.87064 -1.38936,6.15227 -1.52132,6.34698 -5.23315,7.72168 -8.18548,3.03156 -12.46533,3.70323 -23.92214,3.75428 -11.73701,0.0523 -11.96312,0.0141 -18.07328,-3.05191 -7.91274,-3.97056 -14.75553,-10.5733 -21.01958,-20.28216 -9.07334,-14.0631 -22.857334,-23.97088 -35.056294,-25.19807 -7.0184,-0.70605 -12.25085,0.80508 -12.25085,3.53801 0,2.0819 7.34593,9.51816 13.81829,13.98818 2.20566,1.5233 6.19143,5.63759 8.85728,9.14286 4.34773,5.71674 6.53867,9.75014 14.562564,26.80881 4.39881,9.35181 15.45334,17.96094 27.67616,21.55387 2.76571,0.81298 10.78857,1.93964 17.82857,2.50368 10.45773,0.83786 14.43123,0.78486 21.71429,-0.28964 l 8.91428,-1.31515 0.22529,16.04153 c 0.45293,32.24946 0.25195,33.97756 -4.29837,36.95903 -2.40619,1.57661 -7.30077,2.39082 -10.55549,1.7559 z"
       id="path7114" />
  </g>
</svg>
