<?xml version="1.0" encoding="UTF-8" standalone="no"?>
<!-- Created with Inkscape (http://www.inkscape.org/) -->

<svg
   class="linkedIn"
   version="1.1"
   id="svg439"
   width="94.06234"
   height="94.052963"
   viewBox="0 0 94.062338 94.052961"
   sodipodi:docname="linkedin-logo.jpg"
   inkscape:export-filename="linkedin_red.svg"
   inkscape:export-xdpi="96"
   inkscape:export-ydpi="96"
   xmlns:inkscape="http://www.inkscape.org/namespaces/inkscape"
   xmlns:sodipodi="http://sodipodi.sourceforge.net/DTD/sodipodi-0.dtd"
   xmlns="http://www.w3.org/2000/svg"
   xmlns:svg="http://www.w3.org/2000/svg">
  <defs
     id="defs443" />
  <sodipodi:namedview
     id="namedview441"
     pagecolor="#ffffff"
     bordercolor="#000000"
     borderopacity="0.25"
     inkscape:showpageshadow="2"
     inkscape:pageopacity="0.0"
     inkscape:pagecheckerboard="true"
     inkscape:deskcolor="#d1d1d1"
     showgrid="false" />
  <g
     inkscape:groupmode="layer"
     inkscape:label="Image"
     id="g445"
     transform="translate(-32.194891,-27.272736)"
     class="svg">
    <path
       style="fill:#b50000;fill-opacity:1;stroke-width:0.16"
       d="m 50.991227,121.17368 c -3.687817,-0.24892 -5.917833,-0.79205 -8.492966,-2.06851 -4.268626,-2.11591 -7.533402,-5.85063 -9.018326,-10.31647 -1.318869,-3.96643 -1.3374,-4.50215 -1.259186,-36.400004 0.04798,-19.567179 0.117414,-27.188629 0.257277,-28.24 0.276811,-2.080853 1.048219,-4.7426 1.8548,-6.4 2.22888,-4.580002 6.307835,-8.016245 11.197648,-9.433258 3.471856,-1.006104 4.623614,-1.041668 33.767787,-1.042684 29.038559,-9.6e-4 30.089239,0.03154 33.623719,1.04163 5.57372,1.592869 10.20698,6.025483 12.03551,11.514312 0.66587,1.998765 0.94778,3.597803 1.13765,6.452728 0.21849,3.285238 0.21506,52.704762 -0.004,55.947276 -0.19755,2.92582 -0.35466,3.95584 -0.87974,5.76779 -1.65134,5.69843 -6.16911,10.3828 -11.69329,12.1245 -1.93456,0.60993 -3.54431,0.88314 -6.27269,1.06459 -2.91678,0.19398 -53.362167,0.18331 -56.254307,-0.0119 z m 12.507692,-37.144984 0.04066,-18.84 h -5.84066 -5.840658 v 18.881995 18.881999 l 5.8,-0.042 5.8,-0.042 z m 17.80055,8.72 c 8e-4,-6.203072 0.06555,-10.596474 0.165392,-11.211786 0.482354,-2.972512 2.251706,-5.225736 4.746082,-6.044009 1.416961,-0.464831 4.595465,-0.427234 5.839579,0.06907 1.574427,0.628077 2.860659,2.010655 3.602144,3.871965 0.260726,0.65449 0.291517,1.672616 0.365165,12.074757 l 0.08043,11.360007 h 5.679999 5.68 V 89.828696 c 0,-12.217557 -0.0188,-13.11064 -0.29835,-14.16 -0.6805,-2.554542 -2.13888,-5.454822 -3.44509,-6.851274 -0.85604,-0.915168 -2.73949,-2.269131 -4.123979,-2.964612 -2.865441,-1.439421 -7.016828,-1.790314 -10.517177,-0.888956 -2.579499,0.664234 -5.462605,2.375432 -7.278718,4.320108 l -1.136685,1.217152 v -2.656208 -2.65621 h -5.36 -5.36 v 18.773333 c 0,10.325334 0.048,18.821341 0.106667,18.880001 0.05867,0.0587 2.614666,0.10667 5.68,0.10667 h 5.573333 l 0.0013,-10.200004 z M 60.025037,59.123755 c 1.176483,-0.442041 2.625632,-1.647725 3.287354,-2.735059 2.497907,-4.104534 0.111942,-9.310458 -4.640221,-10.124469 -3.576493,-0.612627 -6.95105,1.838459 -7.633987,5.544895 -0.6148,3.33664 1.81456,6.903996 5.190774,7.622312 1.002891,0.213372 2.796152,0.06803 3.79608,-0.307679 z"
       id="path449" />
  </g>
</svg>
